<svg width="76.000000" height="76.000000" viewBox="0 0 76 76" fill="none" xmlns="http://www.w3.org/2000/svg" xmlns:xlink="http://www.w3.org/1999/xlink">
	<desc>
			Created with Pixso.
	</desc>
	<defs/>
	<path id="Vector" d="M38 38L38 9.5" stroke="#000000" stroke-opacity="1.000000" stroke-width="2.000000" stroke-linejoin="round" stroke-linecap="round"/>
	<path id="Vector" d="M62.6818 23.75L13.3183 52.25" stroke="#000000" stroke-opacity="1.000000" stroke-width="2.000000" stroke-linejoin="round" stroke-linecap="round"/>
	<path id="Vector" d="M13.3237 23.7522C16.7189 17.8708 22.0995 13.3928 28.4996 11.1218L28.4996 32.5151L9.97516 43.2102C8.74121 36.5325 9.92847 29.6333 13.3237 23.7522Z" stroke="#000000" stroke-opacity="1.000000" stroke-width="2.000000" stroke-linejoin="round"/>
	<path id="Vector" d="M38 9.5C42.9933 9.50098 47.8986 10.8137 52.2249 13.3069C56.5512 15.8 60.1465 19.386 62.6509 23.7058C65.1553 28.0256 66.4808 32.9275 66.4946 37.9209C66.5085 42.9141 65.2103 47.8232 62.73 52.157C60.2496 56.4907 56.6743 60.0967 52.3619 62.6138C48.0496 65.1309 43.1515 66.4709 38.1583 66.4995C33.1652 66.5281 28.2521 65.2446 23.9111 62.7771C19.5701 60.3096 15.9536 56.7449 13.4237 52.4399" stroke="#000000" stroke-opacity="1.000000" stroke-width="2.000000" stroke-linejoin="round" stroke-linecap="round"/>
</svg>
