<svg width="76.000000" height="76.000000" viewBox="0 0 76 76" fill="none" xmlns="http://www.w3.org/2000/svg" xmlns:xlink="http://www.w3.org/1999/xlink">
	<desc>
			Created with Pixso.
	</desc>
	<defs/>
	<path id="Vector" d="M13.7986 59.0569C13.9892 59.3149 14.23 59.532 14.5067 59.6946C14.7833 59.8572 15.0899 59.9619 15.4081 60.0029C15.7264 60.0439 16.0496 60.0203 16.3584 59.9331C30.5161 56.0239 45.4683 56.0225 59.6267 59.929C59.9354 60.0161 60.2585 60.0398 60.5766 59.9988C60.8947 59.9578 61.2013 59.853 61.4778 59.6904C61.7543 59.5278 61.9951 59.3113 62.1857 59.0532C62.3763 58.7952 62.5128 58.5015 62.587 58.1895L70.1539 26.0327C70.2552 25.6023 70.2343 25.1521 70.0936 24.7329C69.9528 24.3137 69.6978 23.9421 69.3572 23.6599C69.0167 23.3777 68.6041 23.1963 68.166 23.136C67.7279 23.0757 67.2816 23.1389 66.8775 23.3186L51.8604 29.9927C51.3182 30.2336 50.7054 30.2629 50.1426 30.075C49.5798 29.8867 49.1079 29.4946 48.8197 28.9758L40.076 13.2373C39.8704 12.8669 39.5694 12.5586 39.2043 12.3438C38.8393 12.1289 38.4235 12.0156 37.9999 12.0156C37.5764 12.0156 37.1605 12.1289 36.7955 12.3438C36.4305 12.5586 36.1295 12.8669 35.9238 13.2373L27.1801 28.9758C26.892 29.4946 26.42 29.8867 25.8573 30.0747C25.2945 30.2629 24.6817 30.2336 24.1394 29.9927L9.12012 23.3174C8.71606 23.1379 8.2699 23.0747 7.83185 23.135C7.3938 23.1953 6.98132 23.3765 6.64075 23.6584C6.30017 23.9407 6.0451 24.312 5.9043 24.7312C5.76343 25.1504 5.74231 25.6003 5.84344 26.0308L13.3975 58.1926C13.4715 58.5049 13.608 58.7988 13.7986 59.0569Z" stroke="#000000" stroke-opacity="1.000000" stroke-width="2.000000" stroke-linejoin="round"/>
	<path id="Vector" d="M28.5 47.9983C34.8159 47.334 41.1841 47.334 47.5 47.9983" stroke="#000000" stroke-opacity="1.000000" stroke-width="2.000000" stroke-linejoin="round" stroke-linecap="round"/>
</svg>
