<svg width="67.000000" height="67.000000" viewBox="0 0 67 67" fill="none" xmlns="http://www.w3.org/2000/svg" xmlns:xlink="http://www.w3.org/1999/xlink">
	<desc>
			Created with Pixso.
	</desc>
	<defs/>
	<path id="Vector" d="M42.3984 42.3984C37.484 42.3984 33.5 38.4146 33.5 33.5C33.5 28.5854 37.484 24.6016 42.3984 24.6016C47.3129 24.6016 51.2969 28.5854 51.2969 33.5C51.2969 38.4146 47.3129 42.3984 42.3984 42.3984Z" stroke="#000000" stroke-opacity="1.000000" stroke-width="2.000000" stroke-linejoin="round"/>
	<path id="Vector" d="M33.5 6.80493L24.6016 6.80493C22.2416 6.80493 19.9782 7.74243 18.3094 9.41113C16.6406 11.0801 15.7031 13.3433 15.7031 15.7034C15.7031 18.0635 16.6406 20.3267 18.3094 21.9956C19.9782 23.6643 22.2416 24.6018 24.6016 24.6018L33.5 24.6016L33.5 6.80493Z" stroke="#000000" stroke-opacity="1.000000" stroke-width="2.000000" stroke-linejoin="round"/>
	<path id="Vector" d="M33.5 24.6016L24.6016 24.6016C22.2416 24.6016 19.9782 25.5391 18.3094 27.2078C16.6406 28.8767 15.7031 31.1399 15.7031 33.5C15.7031 35.8601 16.6406 38.1233 18.3094 39.7922C19.9782 41.4609 22.2416 42.3984 24.6016 42.3984L33.5 42.3982L33.5 24.6016Z" stroke="#000000" stroke-opacity="1.000000" stroke-width="2.000000" stroke-linejoin="round"/>
	<path id="Vector" d="M33.5 6.80493L42.3984 6.80493C44.7585 6.80493 47.0218 7.74243 48.6906 9.41113C50.3594 11.0801 51.2969 13.3433 51.2969 15.7034C51.2969 18.0635 50.3594 20.3267 48.6906 21.9956C47.0218 23.6643 44.7585 24.6018 42.3984 24.6018L33.5 24.6016L33.5 6.80493Z" stroke="#000000" stroke-opacity="1.000000" stroke-width="2.000000" stroke-linejoin="round"/>
	<path id="Vector" d="M33.5 51.2966C33.5 53.0566 32.9781 54.7771 32.0004 56.2405C31.0226 57.7039 29.6329 58.8445 28.0069 59.5178C26.381 60.1914 24.5918 60.3677 22.8657 60.0244C21.1395 59.6809 19.554 58.8335 18.3094 57.5891C17.065 56.3445 16.2175 54.759 15.8741 53.033C15.5308 51.3069 15.707 49.5176 16.3805 47.8916C17.054 46.2656 18.1945 44.876 19.6578 43.8982C21.1212 42.9204 22.8416 42.3984 24.6016 42.3984L33.5 42.3982L33.5 51.2966Z" stroke="#000000" stroke-opacity="1.000000" stroke-width="2.000000" stroke-linejoin="round"/>
</svg>
