<svg width="32.000000" height="32.000000" viewBox="0 0 32 32" fill="none" xmlns="http://www.w3.org/2000/svg" xmlns:xlink="http://www.w3.org/1999/xlink">
	<desc>
			Created with Pixso.
	</desc>
	<defs/>
	<path id="Vector" d="M5.02002 16.98L5 17C4.43994 17 4 16.5601 4 16C4 15.4399 4.43994 15 5 15L5.02002 15.02L5.02002 16.98ZM26.98 15.02L27 15C27.5601 15 28 15.4399 28 16C28 16.5601 27.5601 17 27 17L26.98 16.98L26.98 15.02Z" fill="#000000" fill-opacity="1.000000" fill-rule="nonzero"/>
	<path id="Vector" d="M5 16L27 16" stroke="#000000" stroke-opacity="1.000000" stroke-width="2.000000" stroke-linejoin="round" stroke-linecap="round"/>
	<path id="Vector" d="M5.02002 8.97998L5 9C4.43994 9 4 8.56006 4 8C4 7.43994 4.43994 7 5 7L5.02002 7.02002L5.02002 8.97998ZM26.98 7.02002L27 7C27.5601 7 28 7.43994 28 8C28 8.56006 27.5601 9 27 9L26.98 8.97998L26.98 7.02002Z" fill="#000000" fill-opacity="1.000000" fill-rule="nonzero"/>
	<path id="Vector" d="M5 8L27 8" stroke="#000000" stroke-opacity="1.000000" stroke-width="2.000000" stroke-linejoin="round" stroke-linecap="round"/>
	<path id="Vector" d="M5.02002 24.98L5 25C4.43994 25 4 24.5601 4 24C4 23.4399 4.43994 23 5 23L5.02002 23.02L5.02002 24.98ZM26.98 23.02L27 23C27.5601 23 28 23.4399 28 24C28 24.5601 27.5601 25 27 25L26.98 24.98L26.98 23.02Z" fill="#000000" fill-opacity="1.000000" fill-rule="nonzero"/>
	<path id="Vector" d="M5 24L27 24" stroke="#000000" stroke-opacity="1.000000" stroke-width="2.000000" stroke-linejoin="round" stroke-linecap="round"/>
</svg>
