<svg width="76.000000" height="76.000000" viewBox="0 0 76 76" fill="none" xmlns="http://www.w3.org/2000/svg" xmlns:xlink="http://www.w3.org/1999/xlink">
	<desc>
			Created with Pixso.
	</desc>
	<defs/>
	<path id="Vector" d="M54.2826 66.1101C56.1965 67.3228 58.5728 65.519 58.0048 63.2852L53.6788 46.2673C53.557 45.7935 53.5714 45.2947 53.7204 44.8286C53.8694 44.3625 54.147 43.9478 54.5212 43.6323L67.9481 32.457C69.7123 30.9885 68.8017 28.0608 66.535 27.9136L49.0004 26.7756C48.5281 26.7417 48.0751 26.5747 47.6942 26.2935C47.3133 26.0122 47.0201 25.6284 46.8487 25.187L40.3091 8.71851C40.1313 8.25 39.8152 7.84668 39.4028 7.56201C38.9904 7.27734 38.5011 7.125 38 7.125C37.4989 7.125 37.0096 7.27734 36.5972 7.56201C36.1848 7.84668 35.8687 8.25 35.691 8.71851L29.1513 25.187C28.98 25.6284 28.6868 26.0122 28.3058 26.2935C27.9249 26.5747 27.4719 26.7417 26.9996 26.7756L9.46497 27.9136C7.1983 28.0608 6.28772 30.9885 8.05194 32.457L21.4788 43.6323C21.853 43.9478 22.1306 44.3625 22.2796 44.8286C22.4286 45.2947 22.4431 45.7935 22.3212 46.2673L18.3093 62.0493C17.6277 64.7302 20.4793 66.8945 22.776 65.4395L36.6905 56.6238C37.0818 56.3745 37.5361 56.2422 38 56.2422C38.4639 56.2422 38.9182 56.3745 39.3096 56.6238L54.2826 66.1101Z" stroke="#000000" stroke-opacity="1.000000" stroke-width="2.000000" stroke-linejoin="round"/>
</svg>
